<?xml version="1.0" encoding="UTF-8"?>
<svg xmlns="http://www.w3.org/2000/svg" xmlns:xlink="http://www.w3.org/1999/xlink" width="375pt" height="374.999991pt" viewBox="0 0 375 374.999991" version="1.2">
<defs>
<clipPath id="clip1">
  <path d="M 2.542969 0.398438 L 375 0.398438 L 375 373.148438 L 2.542969 373.148438 Z M 2.542969 0.398438 "/>
</clipPath>
</defs>
<g id="surface1">
<rect x="0" y="0" width="375" height="374.999991" style="fill:rgb(100%,100%,100%);fill-opacity:1;stroke:none;"/>
<rect x="0" y="0" width="375" height="374.999991" style="fill:rgb(100%,100%,100%);fill-opacity:1;stroke:none;"/>
<rect x="0" y="0" width="375" height="374.999991" style="fill:rgb(100%,100%,100%);fill-opacity:1;stroke:none;"/>
<g clip-path="url(#clip1)" clip-rule="nonzero">
<path style=" stroke:none;fill-rule:nonzero;fill:rgb(0%,0%,0%);fill-opacity:1;" d="M 307.195312 0.398438 L 70.933594 0.398438 C 33.222656 0.398438 2.542969 31.078125 2.542969 68.789062 L 2.542969 305.050781 C 2.542969 342.757812 33.222656 373.441406 70.933594 373.441406 L 185.09375 373.441406 L 185.09375 236.632812 L 158.582031 236.632812 L 158.582031 190.246094 L 185.09375 190.246094 L 185.09375 182.375 C 185.09375 157.941406 192.550781 131.015625 210.773438 114.453125 C 226.515625 99.542969 248.460938 94.15625 266.6875 94.15625 C 280.773438 94.15625 291.539062 95.8125 300.234375 98.296875 L 297.75 146.753906 C 292.367188 145.097656 285.738281 143.855469 277.457031 143.855469 C 256.746094 143.855469 248.050781 160.011719 248.050781 179.890625 L 248.050781 190.246094 L 288.636719 190.246094 L 288.636719 236.632812 L 248.464844 236.632812 L 248.464844 373.441406 L 307.195312 373.441406 C 344.90625 373.441406 375.585938 342.757812 375.585938 305.050781 L 375.585938 68.789062 C 375.585938 31.078125 344.90625 0.398438 307.195312 0.398438 Z M 307.195312 0.398438 "/>
</g>
</g>
</svg>
