<?xml version="1.0" encoding="UTF-8"?>
<svg xmlns="http://www.w3.org/2000/svg" xmlns:xlink="http://www.w3.org/1999/xlink" width="375pt" height="374.999991pt" viewBox="0 0 375 374.999991" version="1.2">
<defs>
<clipPath id="clip1">
  <path d="M 0.566406 0 L 374.640625 0 L 374.640625 374.074219 L 0.566406 374.074219 Z M 0.566406 0 "/>
</clipPath>
</defs>
<g id="surface1">
<rect x="0" y="0" width="375" height="374.999991" style="fill:rgb(100%,100%,100%);fill-opacity:1;stroke:none;"/>
<rect x="0" y="0" width="375" height="374.999991" style="fill:rgb(100%,100%,100%);fill-opacity:1;stroke:none;"/>
<rect x="0" y="0" width="375" height="374.999991" style="fill:rgb(100%,100%,100%);fill-opacity:1;stroke:none;"/>
<g clip-path="url(#clip1)" clip-rule="nonzero">
<path style=" stroke:none;fill-rule:nonzero;fill:rgb(0%,0%,0%);fill-opacity:1;" d="M 104.476562 0 C 47.097656 0 0.566406 46.53125 0.566406 103.910156 L 0.566406 270.164062 C 0.566406 327.542969 47.097656 374.074219 104.476562 374.074219 L 270.730469 374.074219 C 328.109375 374.074219 374.640625 327.542969 374.640625 270.164062 L 374.640625 103.910156 C 374.640625 46.53125 328.109375 0 270.730469 0 Z M 312.292969 41.5625 C 323.765625 41.5625 333.078125 50.875 333.078125 62.347656 C 333.078125 73.816406 323.765625 83.128906 312.292969 83.128906 C 300.824219 83.128906 291.511719 73.816406 291.511719 62.347656 C 291.511719 50.875 300.824219 41.5625 312.292969 41.5625 Z M 187.601562 83.128906 C 244.980469 83.128906 291.511719 129.660156 291.511719 187.039062 C 291.511719 244.414062 244.980469 290.945312 187.601562 290.945312 C 130.222656 290.945312 83.695312 244.414062 83.695312 187.039062 C 83.695312 129.660156 130.222656 83.128906 187.601562 83.128906 Z M 187.601562 124.691406 C 185.5625 124.691406 183.523438 124.792969 181.492188 124.992188 C 179.460938 125.191406 177.441406 125.492188 175.441406 125.890625 C 173.4375 126.289062 171.460938 126.785156 169.503906 127.375 C 167.550781 127.96875 165.632812 128.65625 163.746094 129.4375 C 161.859375 130.21875 160.015625 131.089844 158.214844 132.054688 C 156.414062 133.015625 154.664062 134.0625 152.964844 135.199219 C 151.269531 136.332031 149.628906 137.546875 148.050781 138.84375 C 146.472656 140.136719 144.960938 141.507812 143.519531 142.953125 C 142.074219 144.394531 140.703125 145.90625 139.410156 147.484375 C 138.113281 149.0625 136.898438 150.703125 135.765625 152.398438 C 134.628906 154.097656 133.582031 155.847656 132.617188 157.648438 C 131.65625 159.449219 130.785156 161.292969 130.003906 163.179688 C 129.222656 165.066406 128.535156 166.984375 127.941406 168.9375 C 127.347656 170.894531 126.855469 172.871094 126.457031 174.875 C 126.058594 176.875 125.757812 178.894531 125.558594 180.925781 C 125.359375 182.957031 125.257812 184.996094 125.257812 187.039062 C 125.257812 189.078125 125.359375 191.117188 125.558594 193.148438 C 125.757812 195.179688 126.058594 197.199219 126.457031 199.199219 C 126.855469 201.203125 127.347656 203.179688 127.941406 205.136719 C 128.535156 207.089844 129.222656 209.007812 130.003906 210.894531 C 130.785156 212.78125 131.65625 214.625 132.617188 216.425781 C 133.582031 218.226562 134.628906 219.976562 135.765625 221.675781 C 136.898438 223.371094 138.113281 225.011719 139.410156 226.589844 C 140.703125 228.167969 142.074219 229.679688 143.519531 231.121094 C 144.960938 232.566406 146.472656 233.9375 148.050781 235.230469 C 149.628906 236.527344 151.269531 237.742188 152.964844 238.875 C 154.664062 240.011719 156.414062 241.058594 158.214844 242.019531 C 160.015625 242.984375 161.859375 243.855469 163.746094 244.636719 C 165.632812 245.417969 167.550781 246.105469 169.503906 246.699219 C 171.460938 247.289062 173.4375 247.785156 175.441406 248.183594 C 177.441406 248.582031 179.460938 248.882812 181.492188 249.082031 C 183.523438 249.28125 185.5625 249.382812 187.601562 249.382812 C 189.644531 249.382812 191.683594 249.28125 193.714844 249.082031 C 195.746094 248.882812 197.761719 248.582031 199.765625 248.183594 C 201.769531 247.785156 203.746094 247.289062 205.699219 246.699219 C 207.65625 246.105469 209.574219 245.417969 211.460938 244.636719 C 213.347656 243.855469 215.191406 242.984375 216.992188 242.019531 C 218.792969 241.058594 220.542969 240.011719 222.242188 238.875 C 223.9375 237.742188 225.578125 236.527344 227.15625 235.230469 C 228.734375 233.9375 230.246094 232.566406 231.6875 231.121094 C 233.132812 229.679688 234.5 228.167969 235.796875 226.589844 C 237.09375 225.011719 238.308594 223.371094 239.441406 221.675781 C 240.574219 219.976562 241.625 218.226562 242.585938 216.425781 C 243.550781 214.625 244.421875 212.78125 245.203125 210.894531 C 245.984375 209.007812 246.671875 207.089844 247.265625 205.136719 C 247.855469 203.179688 248.351562 201.203125 248.75 199.199219 C 249.148438 197.199219 249.449219 195.179688 249.648438 193.148438 C 249.847656 191.117188 249.949219 189.078125 249.949219 187.039062 C 249.949219 184.996094 249.847656 182.957031 249.648438 180.925781 C 249.449219 178.894531 249.148438 176.875 248.75 174.875 C 248.351562 172.871094 247.855469 170.894531 247.265625 168.9375 C 246.671875 166.984375 245.984375 165.066406 245.203125 163.179688 C 244.421875 161.292969 243.550781 159.449219 242.585938 157.648438 C 241.625 155.847656 240.574219 154.097656 239.441406 152.398438 C 238.308594 150.703125 237.09375 149.0625 235.796875 147.484375 C 234.5 145.90625 233.132812 144.394531 231.6875 142.953125 C 230.246094 141.507812 228.734375 140.136719 227.15625 138.84375 C 225.578125 137.546875 223.9375 136.332031 222.242188 135.199219 C 220.542969 134.0625 218.792969 133.015625 216.992188 132.054688 C 215.191406 131.089844 213.347656 130.21875 211.460938 129.4375 C 209.574219 128.65625 207.65625 127.96875 205.699219 127.375 C 203.746094 126.785156 201.769531 126.289062 199.765625 125.890625 C 197.761719 125.492188 195.746094 125.191406 193.714844 124.992188 C 191.683594 124.792969 189.644531 124.691406 187.601562 124.691406 Z M 187.601562 124.691406 "/>
</g>
</g>
</svg>
