<?xml version="1.0" encoding="UTF-8"?>
<svg xmlns="http://www.w3.org/2000/svg" xmlns:xlink="http://www.w3.org/1999/xlink" width="375pt" height="374.999991pt" viewBox="0 0 375 374.999991" version="1.2">
<defs>
<clipPath id="clip1">
  <path d="M 2.664062 1.398438 L 374.664062 1.398438 L 374.664062 373.398438 L 2.664062 373.398438 Z M 2.664062 1.398438 "/>
</clipPath>
</defs>
<g id="surface1">
<g clip-path="url(#clip1)" clip-rule="nonzero">
<path style=" stroke:none;fill-rule:nonzero;fill:rgb(100%,100%,100%);fill-opacity:1;" d="M 105.996094 1.398438 C 48.9375 1.398438 2.664062 47.671875 2.664062 104.730469 L 2.664062 270.066406 C 2.664062 327.125 48.9375 373.398438 105.996094 373.398438 L 271.328125 373.398438 C 328.390625 373.398438 374.664062 327.125 374.664062 270.066406 L 374.664062 104.730469 C 374.664062 47.671875 328.390625 1.398438 271.328125 1.398438 Z M 312.664062 42.730469 C 324.070312 42.730469 333.328125 51.992188 333.328125 63.398438 C 333.328125 74.804688 324.070312 84.066406 312.664062 84.066406 C 301.253906 84.066406 291.996094 74.804688 291.996094 63.398438 C 291.996094 51.992188 301.253906 42.730469 312.664062 42.730469 Z M 188.664062 84.066406 C 245.722656 84.066406 291.996094 130.335938 291.996094 187.398438 C 291.996094 244.457031 245.722656 290.730469 188.664062 290.730469 C 131.601562 290.730469 85.328125 244.457031 85.328125 187.398438 C 85.328125 130.335938 131.601562 84.066406 188.664062 84.066406 Z M 188.664062 125.398438 C 186.632812 125.398438 184.605469 125.496094 182.585938 125.695312 C 180.566406 125.894531 178.558594 126.195312 176.566406 126.589844 C 174.574219 126.984375 172.609375 127.476562 170.664062 128.066406 C 168.722656 128.65625 166.8125 129.339844 164.9375 130.117188 C 163.0625 130.894531 161.226562 131.761719 159.4375 132.71875 C 157.644531 133.675781 155.90625 134.71875 154.21875 135.847656 C 152.53125 136.976562 150.902344 138.183594 149.332031 139.472656 C 147.761719 140.761719 146.257812 142.121094 144.824219 143.558594 C 143.386719 144.992188 142.023438 146.496094 140.738281 148.066406 C 139.449219 149.636719 138.242188 151.265625 137.113281 152.953125 C 135.984375 154.640625 134.941406 156.378906 133.984375 158.171875 C 133.027344 159.960938 132.160156 161.796875 131.382812 163.671875 C 130.605469 165.546875 129.921875 167.457031 129.332031 169.402344 C 128.742188 171.34375 128.25 173.3125 127.855469 175.300781 C 127.457031 177.292969 127.160156 179.300781 126.960938 181.320312 C 126.761719 183.34375 126.664062 185.367188 126.664062 187.398438 C 126.664062 189.429688 126.761719 191.453125 126.960938 193.476562 C 127.160156 195.496094 127.457031 197.503906 127.855469 199.492188 C 128.25 201.484375 128.742188 203.453125 129.332031 205.394531 C 129.921875 207.339844 130.605469 209.25 131.382812 211.125 C 132.160156 213 133.027344 214.835938 133.984375 216.625 C 134.941406 218.414062 135.984375 220.15625 137.113281 221.84375 C 138.242188 223.53125 139.449219 225.160156 140.738281 226.730469 C 142.023438 228.300781 143.386719 229.804688 144.824219 231.238281 C 146.257812 232.675781 147.761719 234.035156 149.332031 235.324219 C 150.902344 236.613281 152.53125 237.820312 154.21875 238.949219 C 155.90625 240.078125 157.644531 241.121094 159.4375 242.078125 C 161.226562 243.035156 163.0625 243.902344 164.9375 244.679688 C 166.8125 245.457031 168.722656 246.140625 170.664062 246.726562 C 172.609375 247.316406 174.574219 247.8125 176.566406 248.207031 C 178.558594 248.601562 180.566406 248.902344 182.585938 249.101562 C 184.605469 249.296875 186.632812 249.398438 188.664062 249.398438 C 190.695312 249.398438 192.71875 249.296875 194.742188 249.101562 C 196.761719 248.902344 198.765625 248.601562 200.757812 248.207031 C 202.75 247.8125 204.71875 247.316406 206.660156 246.726562 C 208.605469 246.140625 210.515625 245.457031 212.390625 244.679688 C 214.265625 243.902344 216.097656 243.035156 217.890625 242.078125 C 219.679688 241.121094 221.421875 240.078125 223.109375 238.949219 C 224.796875 237.820312 226.425781 236.613281 227.996094 235.324219 C 229.566406 234.035156 231.066406 232.675781 232.503906 231.238281 C 233.941406 229.804688 235.300781 228.300781 236.589844 226.730469 C 237.878906 225.160156 239.085938 223.53125 240.214844 221.84375 C 241.34375 220.15625 242.386719 218.414062 243.34375 216.625 C 244.300781 214.835938 245.167969 213 245.945312 211.125 C 246.722656 209.25 247.402344 207.339844 247.992188 205.394531 C 248.582031 203.453125 249.074219 201.484375 249.472656 199.492188 C 249.867188 197.503906 250.164062 195.496094 250.363281 193.476562 C 250.5625 191.453125 250.664062 189.429688 250.664062 187.398438 C 250.664062 185.367188 250.5625 183.34375 250.363281 181.320312 C 250.164062 179.300781 249.867188 177.292969 249.472656 175.300781 C 249.074219 173.3125 248.582031 171.34375 247.992188 169.402344 C 247.402344 167.457031 246.722656 165.546875 245.945312 163.671875 C 245.167969 161.796875 244.300781 159.960938 243.34375 158.171875 C 242.386719 156.378906 241.34375 154.640625 240.214844 152.953125 C 239.085938 151.265625 237.878906 149.636719 236.589844 148.066406 C 235.300781 146.496094 233.941406 144.992188 232.503906 143.558594 C 231.066406 142.121094 229.566406 140.757812 227.996094 139.472656 C 226.425781 138.183594 224.796875 136.976562 223.109375 135.847656 C 221.421875 134.71875 219.679688 133.675781 217.890625 132.71875 C 216.097656 131.761719 214.265625 130.894531 212.390625 130.117188 C 210.515625 129.339844 208.605469 128.65625 206.660156 128.066406 C 204.71875 127.476562 202.75 126.984375 200.757812 126.589844 C 198.765625 126.195312 196.761719 125.894531 194.742188 125.695312 C 192.71875 125.496094 190.695312 125.398438 188.664062 125.398438 Z M 188.664062 125.398438 "/>
</g>
</g>
</svg>
