<?xml version="1.0" encoding="UTF-8"?>
<svg xmlns="http://www.w3.org/2000/svg" xmlns:xlink="http://www.w3.org/1999/xlink" width="375pt" height="374.999991pt" viewBox="0 0 375 374.999991" version="1.2">
<defs>
<clipPath id="clip1">
  <path d="M 6.925781 3.894531 L 375 3.894531 L 375 372.144531 L 6.925781 372.144531 Z M 6.925781 3.894531 "/>
</clipPath>
</defs>
<g id="surface1">
<g clip-path="url(#clip1)" clip-rule="nonzero">
<path style=" stroke:none;fill-rule:nonzero;fill:rgb(100%,100%,100%);fill-opacity:1;" d="M 321.355469 57.808594 C 286.628906 23.0625 240.449219 3.914062 191.253906 3.894531 C 89.871094 3.894531 7.367188 86.363281 7.328125 187.742188 C 7.3125 220.148438 15.78125 251.78125 31.875 279.660156 L 6.925781 372.144531 L 103.277344 349.367188 C 130.140625 364.023438 160.375 371.738281 191.160156 371.757812 L 191.234375 371.757812 C 292.59375 371.757812 375.101562 289.269531 375.15625 187.910156 C 375.191406 138.765625 356.082031 92.570312 321.355469 57.808594 Z M 281.234375 253.457031 C 277.40625 264.191406 258.640625 274.539062 250.210938 275.296875 C 241.777344 276.070312 233.878906 279.105469 195.0625 263.804688 C 148.351562 245.394531 118.855469 197.503906 116.570312 194.445312 C 114.269531 191.371094 97.808594 169.535156 97.808594 146.921875 C 97.808594 124.3125 109.683594 113.191406 113.902344 108.605469 C 118.117188 104.003906 123.089844 102.863281 126.164062 102.863281 C 129.21875 102.863281 132.296875 102.863281 134.964844 102.972656 C 138.242188 103.101562 141.871094 103.265625 145.3125 110.910156 C 149.402344 120.003906 158.332031 142.726562 159.472656 145.027344 C 160.613281 147.328125 161.386719 150.015625 159.859375 153.074219 C 158.332031 156.128906 157.558594 158.042969 155.273438 160.734375 C 152.972656 163.421875 150.449219 166.71875 148.386719 168.777344 C 146.085938 171.0625 143.691406 173.566406 146.363281 178.152344 C 149.050781 182.753906 158.257812 197.796875 171.917969 209.96875 C 189.484375 225.617188 204.269531 230.460938 208.871094 232.78125 C 213.476562 235.082031 216.144531 234.695312 218.835938 231.621094 C 221.523438 228.566406 230.324219 218.214844 233.378906 213.613281 C 236.4375 209.011719 239.511719 209.785156 243.726562 211.3125 C 247.945312 212.839844 270.535156 223.960938 275.121094 226.261719 C 279.722656 228.566406 282.78125 229.707031 283.921875 231.621094 C 285.0625 233.515625 285.0625 242.722656 281.234375 253.457031 Z M 281.234375 253.457031 "/>
</g>
</g>
</svg>
