<?xml version="1.0" encoding="UTF-8"?>
<svg xmlns="http://www.w3.org/2000/svg" xmlns:xlink="http://www.w3.org/1999/xlink" width="810pt" height="809.999993pt" viewBox="0 0 810 809.999993" version="1.2">
<defs>
<clipPath id="clip1">
  <path d="M 0 77.25 L 810 77.25 L 810 751.5 L 0 751.5 Z M 0 77.25 "/>
</clipPath>
</defs>
<g id="surface1">
<g clip-path="url(#clip1)" clip-rule="nonzero">
<path style=" stroke:none;fill-rule:nonzero;fill:rgb(100%,100%,100%);fill-opacity:1;" d="M 801.296875 152.699219 L 719.335938 152.699219 L 719.335938 109.003906 C 719.335938 91.449219 705.050781 77.164062 687.492188 77.164062 L 666.511719 77.164062 C 648.953125 77.164062 634.667969 91.449219 634.667969 109.003906 L 634.667969 152.699219 L 583.375 152.699219 L 583.375 109.003906 C 583.375 91.449219 569.089844 77.164062 551.53125 77.164062 L 530.550781 77.164062 C 512.992188 77.164062 498.707031 91.449219 498.707031 109.003906 L 498.707031 152.699219 L 447.414062 152.699219 L 447.414062 109.003906 C 447.414062 91.449219 433.132812 77.164062 415.574219 77.164062 L 394.59375 77.164062 C 377.039062 77.164062 362.753906 91.449219 362.753906 109.003906 L 362.753906 152.699219 L 311.457031 152.699219 L 311.457031 109.003906 C 311.457031 91.449219 297.175781 77.164062 279.617188 77.164062 L 258.636719 77.164062 C 241.078125 77.164062 226.792969 91.449219 226.792969 109.003906 L 226.792969 152.699219 L 175.5 152.699219 L 175.5 109.003906 C 175.5 91.449219 161.21875 77.164062 143.660156 77.164062 L 122.683594 77.164062 C 105.125 77.164062 90.839844 91.449219 90.839844 109.003906 L 90.839844 152.699219 L 8.878906 152.699219 C 4.085938 152.699219 0.199219 156.585938 0.199219 161.375 L 0.199219 742.734375 C 0.199219 747.527344 4.085938 751.414062 8.878906 751.414062 L 801.296875 751.414062 C 806.089844 751.414062 809.972656 747.527344 809.972656 742.734375 L 809.972656 161.375 C 809.972656 156.585938 806.085938 152.699219 801.296875 152.699219 Z M 652.027344 109.003906 C 652.027344 101.019531 658.523438 94.519531 666.511719 94.519531 L 687.492188 94.519531 C 695.480469 94.519531 701.980469 101.019531 701.980469 109.003906 L 701.980469 161.273438 C 701.980469 161.308594 701.96875 161.339844 701.96875 161.375 C 701.96875 161.410156 701.980469 161.441406 701.980469 161.476562 L 701.980469 213.730469 C 701.980469 221.714844 695.480469 228.210938 687.492188 228.210938 L 666.511719 228.210938 C 658.523438 228.210938 652.027344 221.714844 652.027344 213.730469 Z M 516.066406 161.410156 C 516.066406 161.398438 516.070312 161.386719 516.070312 161.378906 C 516.070312 161.367188 516.066406 161.355469 516.066406 161.34375 L 516.066406 109.003906 C 516.066406 101.019531 522.5625 94.519531 530.554688 94.519531 L 551.53125 94.519531 C 559.519531 94.519531 566.019531 101.019531 566.019531 109.003906 L 566.019531 213.730469 C 566.019531 221.714844 559.519531 228.214844 551.53125 228.214844 L 530.554688 228.214844 C 522.5625 228.214844 516.066406 221.714844 516.066406 213.730469 Z M 380.113281 161.453125 C 380.113281 161.425781 380.121094 161.402344 380.121094 161.375 C 380.121094 161.351562 380.113281 161.324219 380.113281 161.300781 L 380.113281 109.003906 C 380.113281 101.019531 386.613281 94.519531 394.597656 94.519531 L 415.578125 94.519531 C 423.566406 94.519531 430.0625 101.019531 430.0625 109.003906 L 430.0625 161.292969 C 430.0625 161.320312 430.054688 161.347656 430.054688 161.375 C 430.054688 161.402344 430.0625 161.429688 430.0625 161.460938 L 430.0625 213.730469 C 430.0625 221.714844 423.566406 228.210938 415.578125 228.210938 L 394.597656 228.210938 C 386.613281 228.210938 380.113281 221.714844 380.113281 213.730469 Z M 244.152344 109.003906 C 244.152344 101.019531 250.652344 94.519531 258.636719 94.519531 L 279.621094 94.519531 C 287.605469 94.519531 294.105469 101.019531 294.105469 109.003906 L 294.105469 213.730469 C 294.105469 221.714844 287.605469 228.214844 279.621094 228.214844 L 258.636719 228.214844 C 250.652344 228.214844 244.152344 221.714844 244.152344 213.730469 Z M 108.199219 161.410156 C 108.199219 161.398438 108.203125 161.386719 108.203125 161.378906 C 108.203125 161.367188 108.199219 161.355469 108.199219 161.34375 L 108.199219 109.003906 C 108.199219 101.019531 114.695312 94.519531 122.683594 94.519531 L 143.664062 94.519531 C 151.652344 94.519531 158.148438 101.019531 158.148438 109.003906 L 158.148438 213.730469 C 158.148438 221.714844 151.648438 228.214844 143.664062 228.214844 L 122.683594 228.214844 C 114.695312 228.214844 108.199219 221.714844 108.199219 213.730469 Z M 792.617188 734.058594 L 17.554688 734.058594 L 17.554688 170.054688 L 90.839844 170.054688 L 90.839844 213.730469 C 90.839844 231.285156 105.125 245.570312 122.683594 245.570312 L 143.664062 245.570312 C 161.21875 245.570312 175.503906 231.289062 175.507812 213.730469 L 175.507812 170.054688 L 226.796875 170.054688 L 226.796875 213.730469 C 226.796875 231.285156 241.082031 245.570312 258.640625 245.570312 L 279.621094 245.570312 C 297.179688 245.570312 311.464844 231.289062 311.464844 213.730469 L 311.464844 170.054688 L 362.757812 170.054688 L 362.757812 213.730469 C 362.757812 231.285156 377.042969 245.570312 394.597656 245.570312 L 415.578125 245.570312 C 433.136719 245.570312 447.421875 231.289062 447.421875 213.730469 L 447.421875 170.054688 L 498.710938 170.054688 L 498.710938 213.730469 C 498.710938 231.285156 512.996094 245.570312 530.558594 245.570312 L 551.535156 245.570312 C 569.09375 245.570312 583.378906 231.289062 583.378906 213.730469 L 583.378906 170.054688 L 634.675781 170.054688 L 634.675781 213.730469 C 634.675781 231.285156 648.957031 245.570312 666.515625 245.570312 L 687.496094 245.570312 C 705.054688 245.570312 719.34375 231.289062 719.34375 213.730469 L 719.34375 170.054688 L 792.621094 170.054688 L 792.621094 734.058594 Z M 792.617188 734.058594 "/>
</g>
<path style=" stroke:none;fill-rule:nonzero;fill:rgb(100%,100%,100%);fill-opacity:1;" d="M 405.085938 284.34375 L 76.398438 284.34375 C 71.609375 284.34375 67.722656 288.230469 67.722656 293.023438 L 67.722656 682.15625 C 67.722656 686.949219 71.609375 690.835938 76.398438 690.835938 L 733.769531 690.835938 C 738.566406 690.835938 742.449219 686.949219 742.449219 682.15625 L 742.449219 293.023438 C 742.449219 288.230469 738.566406 284.34375 733.769531 284.34375 Z M 232.066406 673.480469 L 85.078125 673.480469 L 85.078125 561.125 L 232.066406 561.125 Z M 232.066406 543.765625 L 85.078125 543.765625 L 85.078125 431.414062 L 232.066406 431.414062 Z M 232.066406 414.058594 L 85.078125 414.058594 L 85.078125 301.699219 L 232.066406 301.699219 Z M 396.410156 673.480469 L 249.421875 673.480469 L 249.421875 561.125 L 396.410156 561.125 Z M 396.410156 543.765625 L 249.421875 543.765625 L 249.421875 431.414062 L 396.410156 431.414062 Z M 396.410156 414.058594 L 249.421875 414.058594 L 249.421875 301.699219 L 396.410156 301.699219 Z M 560.75 673.480469 L 413.765625 673.480469 L 413.765625 561.125 L 560.75 561.125 Z M 560.75 543.765625 L 413.765625 543.765625 L 413.765625 431.414062 L 560.75 431.414062 Z M 560.75 414.058594 L 413.765625 414.058594 L 413.765625 301.699219 L 560.75 301.699219 Z M 578.109375 301.699219 L 725.09375 301.699219 L 725.09375 414.058594 L 578.109375 414.058594 Z M 578.109375 431.414062 L 725.09375 431.414062 L 725.09375 543.765625 L 578.109375 543.765625 Z M 578.109375 561.121094 L 725.09375 561.121094 L 725.09375 673.480469 L 578.109375 673.480469 Z M 578.109375 561.121094 "/>
<path style=" stroke:none;fill-rule:nonzero;fill:rgb(100%,100%,100%);fill-opacity:1;" d="M 139.503906 651.191406 C 141.199219 652.886719 143.421875 653.734375 145.644531 653.734375 C 147.863281 653.734375 150.085938 652.886719 151.78125 651.191406 L 207.292969 595.683594 C 210.679688 592.296875 210.679688 586.800781 207.292969 583.414062 C 203.902344 580.023438 198.40625 580.023438 195.019531 583.414062 L 145.644531 632.785156 L 124.628906 611.773438 C 121.242188 608.382812 115.75 608.382812 112.355469 611.773438 C 108.96875 615.160156 108.96875 620.652344 112.355469 624.042969 Z M 139.503906 651.191406 "/>
</g>
</svg>
