<?xml version="1.0" encoding="UTF-8"?>
<svg xmlns="http://www.w3.org/2000/svg" xmlns:xlink="http://www.w3.org/1999/xlink" width="810pt" height="809.999993pt" viewBox="0 0 810 809.999993" version="1.2">
<defs>
<clipPath id="clip1">
  <path d="M 4 59 L 808 59 L 808 797.25 L 4 797.25 Z M 4 59 "/>
</clipPath>
</defs>
<g id="surface1">
<g clip-path="url(#clip1)" clip-rule="nonzero">
<path style=" stroke:none;fill-rule:nonzero;fill:rgb(100%,100%,100%);fill-opacity:1;" d="M 727.902344 59.816406 L 677.910156 59.816406 L 677.910156 127.667969 C 677.910156 159.808594 652.019531 184.804688 620.777344 184.804688 L 617.207031 184.804688 C 585.066406 184.804688 560.074219 158.914062 560.074219 127.667969 L 560.074219 59.816406 L 247.625 59.816406 L 247.625 127.667969 C 247.625 159.808594 221.738281 184.804688 190.492188 184.804688 L 186.921875 184.804688 C 154.785156 184.804688 129.789062 158.914062 129.789062 127.667969 L 129.789062 59.816406 L 85.15625 59.816406 C 40.519531 59.816406 4.8125 95.527344 4.8125 140.167969 L 4.8125 716.898438 C 4.8125 761.539062 40.519531 797.25 85.15625 797.25 L 612.742188 797.25 L 650.234375 796.355469 C 654.699219 794.570312 659.164062 792.785156 662.734375 789.214844 L 792.175781 651.726562 C 793.960938 649.941406 794.851562 648.15625 796.640625 646.371094 C 803.78125 637.441406 807.351562 626.730469 807.351562 616.015625 L 807.351562 140.167969 C 808.242188 95.527344 772.535156 59.816406 727.902344 59.816406 Z M 649.34375 720.472656 L 649.34375 650.835938 C 649.34375 637.441406 660.054688 627.621094 672.554688 627.621094 L 737.71875 627.621094 Z M 751.109375 570.484375 L 672.554688 570.484375 C 627.917969 570.484375 592.210938 606.195312 592.210938 650.835938 L 592.210938 741.003906 L 85.15625 741.003906 C 71.765625 741.003906 61.945312 730.292969 61.945312 717.792969 L 61.945312 266.941406 L 752.003906 266.941406 L 752.003906 570.484375 Z M 751.109375 570.484375 "/>
</g>
<path style=" stroke:none;fill-rule:nonzero;fill:rgb(100%,100%,100%);fill-opacity:1;" d="M 189.601562 159.808594 C 207.453125 159.808594 222.632812 144.628906 222.632812 126.773438 L 222.632812 33.03125 C 222.632812 15.175781 207.453125 0 189.601562 0 L 186.03125 0 C 168.175781 0 153 15.175781 153 33.03125 L 153 127.667969 C 153 145.523438 168.175781 160.699219 186.03125 160.699219 L 189.601562 160.699219 Z M 189.601562 159.808594 "/>
<path style=" stroke:none;fill-rule:nonzero;fill:rgb(100%,100%,100%);fill-opacity:1;" d="M 620.777344 159.808594 C 638.628906 159.808594 653.804688 144.628906 653.804688 126.773438 L 653.804688 33.03125 C 653.804688 15.175781 638.628906 0 620.777344 0 L 617.207031 0 C 599.351562 0 584.175781 15.175781 584.175781 33.03125 L 584.175781 127.667969 C 584.175781 145.523438 599.351562 160.699219 617.207031 160.699219 L 620.777344 160.699219 Z M 620.777344 159.808594 "/>
<path style=" stroke:none;fill-rule:nonzero;fill:rgb(100%,100%,100%);fill-opacity:1;" d="M 149.429688 345.503906 L 215.488281 345.503906 L 215.488281 411.570312 L 149.429688 411.570312 Z M 149.429688 345.503906 "/>
<path style=" stroke:none;fill-rule:nonzero;fill:rgb(100%,100%,100%);fill-opacity:1;" d="M 299.402344 345.503906 L 365.464844 345.503906 L 365.464844 411.570312 L 299.402344 411.570312 Z M 299.402344 345.503906 "/>
<path style=" stroke:none;fill-rule:nonzero;fill:rgb(100%,100%,100%);fill-opacity:1;" d="M 449.378906 345.503906 L 515.4375 345.503906 L 515.4375 411.570312 L 449.378906 411.570312 Z M 449.378906 345.503906 "/>
<path style=" stroke:none;fill-rule:nonzero;fill:rgb(100%,100%,100%);fill-opacity:1;" d="M 598.457031 345.503906 L 664.519531 345.503906 L 664.519531 411.570312 L 598.457031 411.570312 Z M 598.457031 345.503906 "/>
<path style=" stroke:none;fill-rule:nonzero;fill:rgb(100%,100%,100%);fill-opacity:1;" d="M 149.429688 472.277344 L 215.488281 472.277344 L 215.488281 538.34375 L 149.429688 538.34375 Z M 149.429688 472.277344 "/>
<path style=" stroke:none;fill-rule:nonzero;fill:rgb(100%,100%,100%);fill-opacity:1;" d="M 299.402344 472.277344 L 365.464844 472.277344 L 365.464844 538.34375 L 299.402344 538.34375 Z M 299.402344 472.277344 "/>
<path style=" stroke:none;fill-rule:nonzero;fill:rgb(100%,100%,100%);fill-opacity:1;" d="M 449.378906 472.277344 L 515.4375 472.277344 L 515.4375 538.34375 L 449.378906 538.34375 Z M 449.378906 472.277344 "/>
<path style=" stroke:none;fill-rule:nonzero;fill:rgb(100%,100%,100%);fill-opacity:1;" d="M 598.457031 472.277344 L 664.519531 472.277344 L 664.519531 538.34375 L 598.457031 538.34375 Z M 598.457031 472.277344 "/>
<path style=" stroke:none;fill-rule:nonzero;fill:rgb(100%,100%,100%);fill-opacity:1;" d="M 149.429688 599.945312 L 215.488281 599.945312 L 215.488281 666.011719 L 149.429688 666.011719 Z M 149.429688 599.945312 "/>
<path style=" stroke:none;fill-rule:nonzero;fill:rgb(100%,100%,100%);fill-opacity:1;" d="M 299.402344 599.945312 L 365.464844 599.945312 L 365.464844 666.011719 L 299.402344 666.011719 Z M 299.402344 599.945312 "/>
<path style=" stroke:none;fill-rule:nonzero;fill:rgb(100%,100%,100%);fill-opacity:1;" d="M 449.378906 599.945312 L 515.4375 599.945312 L 515.4375 666.011719 L 449.378906 666.011719 Z M 449.378906 599.945312 "/>
</g>
</svg>
