<?xml version="1.0" encoding="UTF-8"?>
<svg xmlns="http://www.w3.org/2000/svg" xmlns:xlink="http://www.w3.org/1999/xlink" width="810pt" height="809.999993pt" viewBox="0 0 810 809.999993" version="1.2">
<g id="surface1">
<path style=" stroke:none;fill-rule:nonzero;fill:rgb(100%,100%,100%);fill-opacity:1;" d="M 496.867188 123.078125 C 467.351562 116.21875 436.601562 112.59375 405 112.59375 C 181.625 112.59375 0.539062 293.675781 0.539062 517.054688 L 116.101562 517.054688 C 116.101562 357.503906 245.445312 228.15625 405 228.15625 C 421 228.15625 436.695312 229.460938 451.984375 231.957031 L 383.816406 397.335938 C 343.078125 406.191406 308.0625 435.761719 295.003906 478.464844 C 275.738281 541.488281 311.210938 608.191406 374.222656 627.460938 C 437.242188 646.71875 503.949219 611.257812 523.214844 548.234375 C 536.265625 505.53125 523.769531 461.433594 494.945312 431.289062 L 530.710938 256.863281 C 625.433594 302.714844 691.328125 398.765625 693.828125 510.460938 C 693.859375 511.917969 693.886719 514.125 693.902344 517.054688 L 809.460938 517.054688 C 809.460938 514.21875 809.433594 511.390625 809.375 508.5625 C 805.933594 341.636719 701.367188 199.554688 554.445312 141.105469 L 569.070312 69.800781 C 571.300781 59.011719 565.617188 47.777344 555.046875 43.457031 C 554.324219 43.148438 553.664062 42.902344 552.925781 42.675781 C 541.53125 39.191406 529.121094 44.894531 524.453125 56.160156 Z M 496.867188 123.078125 "/>
</g>
</svg>
