<?xml version="1.0" encoding="UTF-8"?>
<svg xmlns="http://www.w3.org/2000/svg" xmlns:xlink="http://www.w3.org/1999/xlink" width="810pt" height="809.999993pt" viewBox="0 0 810 809.999993" version="1.2">
<defs>
<clipPath id="clip1">
  <path d="M 287 104.792969 L 745 104.792969 L 745 380 L 287 380 Z M 287 104.792969 "/>
</clipPath>
<clipPath id="clip2">
  <path d="M 0 170 L 810 170 L 810 705.542969 L 0 705.542969 Z M 0 170 "/>
</clipPath>
</defs>
<g id="surface1">
<path style=" stroke:none;fill-rule:nonzero;fill:rgb(100%,100%,100%);fill-opacity:1;" d="M 157.003906 222.332031 C 157.003906 223.613281 156.941406 224.894531 156.816406 226.171875 C 156.691406 227.449219 156.503906 228.71875 156.253906 229.976562 C 156 231.234375 155.691406 232.476562 155.320312 233.707031 C 154.945312 234.933594 154.515625 236.140625 154.023438 237.324219 C 153.53125 238.511719 152.984375 239.667969 152.378906 240.800781 C 151.777344 241.933594 151.117188 243.03125 150.40625 244.097656 C 149.691406 245.164062 148.929688 246.195312 148.117188 247.1875 C 147.300781 248.179688 146.441406 249.128906 145.535156 250.035156 C 144.628906 250.941406 143.679688 251.804688 142.6875 252.617188 C 141.695312 253.433594 140.667969 254.195312 139.601562 254.910156 C 138.535156 255.621094 137.4375 256.28125 136.304688 256.886719 C 135.175781 257.488281 134.015625 258.039062 132.832031 258.527344 C 131.648438 259.019531 130.441406 259.453125 129.214844 259.824219 C 127.988281 260.195312 126.746094 260.507812 125.488281 260.757812 C 124.230469 261.007812 122.960938 261.195312 121.683594 261.324219 C 120.410156 261.449219 119.128906 261.511719 117.847656 261.511719 C 116.566406 261.511719 115.285156 261.449219 114.007812 261.324219 C 112.734375 261.195312 111.464844 261.007812 110.207031 260.757812 C 108.949219 260.507812 107.707031 260.195312 106.480469 259.824219 C 105.253906 259.453125 104.046875 259.019531 102.863281 258.527344 C 101.675781 258.039062 100.519531 257.488281 99.390625 256.886719 C 98.257812 256.28125 97.160156 255.621094 96.09375 254.910156 C 95.027344 254.195312 93.996094 253.433594 93.007812 252.617188 C 92.015625 251.804688 91.066406 250.941406 90.160156 250.035156 C 89.253906 249.128906 88.390625 248.179688 87.578125 247.1875 C 86.765625 246.195312 86 245.164062 85.289062 244.097656 C 84.578125 243.03125 83.917969 241.933594 83.3125 240.800781 C 82.710938 239.667969 82.160156 238.511719 81.671875 237.324219 C 81.179688 236.140625 80.75 234.933594 80.375 233.707031 C 80.003906 232.476562 79.691406 231.234375 79.441406 229.976562 C 79.191406 228.71875 79.003906 227.449219 78.878906 226.171875 C 78.753906 224.894531 78.691406 223.613281 78.691406 222.332031 C 78.691406 221.050781 78.753906 219.769531 78.878906 218.492188 C 79.003906 217.214844 79.191406 215.945312 79.441406 214.6875 C 79.691406 213.429688 80.003906 212.1875 80.375 210.957031 C 80.75 209.730469 81.179688 208.523438 81.671875 207.339844 C 82.160156 206.152344 82.710938 204.996094 83.3125 203.863281 C 83.917969 202.730469 84.578125 201.632812 85.289062 200.566406 C 86 199.5 86.765625 198.46875 87.578125 197.476562 C 88.390625 196.484375 89.253906 195.535156 90.160156 194.628906 C 91.066406 193.722656 92.015625 192.859375 93.007812 192.046875 C 93.996094 191.230469 95.027344 190.46875 96.09375 189.753906 C 97.160156 189.042969 98.257812 188.382812 99.390625 187.777344 C 100.519531 187.175781 101.675781 186.625 102.863281 186.136719 C 104.046875 185.644531 105.253906 185.210938 106.480469 184.839844 C 107.707031 184.46875 108.949219 184.15625 110.207031 183.90625 C 111.464844 183.65625 112.734375 183.46875 114.007812 183.339844 C 115.285156 183.214844 116.566406 183.152344 117.847656 183.152344 C 119.128906 183.152344 120.410156 183.214844 121.683594 183.339844 C 122.960938 183.46875 124.230469 183.65625 125.488281 183.90625 C 126.746094 184.15625 127.988281 184.46875 129.214844 184.839844 C 130.441406 185.210938 131.648438 185.644531 132.832031 186.136719 C 134.015625 186.625 135.175781 187.175781 136.304688 187.777344 C 137.4375 188.382812 138.535156 189.042969 139.601562 189.753906 C 140.667969 190.46875 141.695312 191.230469 142.6875 192.046875 C 143.679688 192.859375 144.628906 193.722656 145.535156 194.628906 C 146.441406 195.535156 147.300781 196.484375 148.117188 197.476562 C 148.929688 198.46875 149.691406 199.5 150.40625 200.566406 C 151.117188 201.632812 151.777344 202.730469 152.378906 203.863281 C 152.984375 204.996094 153.53125 206.152344 154.023438 207.339844 C 154.515625 208.523438 154.945312 209.730469 155.320312 210.957031 C 155.691406 212.1875 156 213.429688 156.253906 214.6875 C 156.503906 215.945312 156.691406 217.214844 156.816406 218.492188 C 156.941406 219.769531 157.003906 221.050781 157.003906 222.332031 Z M 157.003906 222.332031 "/>
<g clip-path="url(#clip1)" clip-rule="nonzero">
<path style=" stroke:none;fill-rule:nonzero;fill:rgb(100%,100%,100%);fill-opacity:1;" d="M 300.582031 379.050781 C 307.515625 379.0625 314.449219 378.90625 321.375 378.589844 C 328.304688 378.269531 335.21875 377.785156 342.125 377.136719 C 349.027344 376.488281 355.914062 375.675781 362.78125 374.699219 C 369.644531 373.71875 376.484375 372.578125 383.296875 371.273438 C 390.109375 369.96875 396.886719 368.503906 403.625 366.875 C 410.367188 365.25 417.066406 363.460938 423.722656 361.515625 C 430.378906 359.566406 436.988281 357.460938 443.542969 355.199219 C 450.097656 352.9375 456.597656 350.519531 463.039062 347.945312 C 469.480469 345.371094 475.855469 342.648438 482.164062 339.769531 C 488.476562 336.894531 494.714844 333.867188 500.882812 330.691406 C 507.046875 327.515625 513.136719 324.195312 519.144531 320.730469 C 525.152344 317.265625 531.074219 313.65625 536.910156 309.910156 C 542.746094 306.160156 548.492188 302.277344 554.140625 298.253906 C 559.792969 294.230469 565.34375 290.074219 570.796875 285.789062 C 576.25 281.5 581.597656 277.085938 586.839844 272.542969 C 592.082031 268 597.214844 263.335938 602.234375 258.546875 L 718.257812 148.882812 L 718.257812 183.152344 C 718.257812 184.011719 718.339844 184.859375 718.507812 185.699219 C 718.675781 186.542969 718.921875 187.359375 719.25 188.152344 C 719.578125 188.941406 719.980469 189.695312 720.457031 190.410156 C 720.933594 191.121094 721.472656 191.78125 722.082031 192.386719 C 722.6875 192.992188 723.34375 193.535156 724.058594 194.011719 C 724.769531 194.488281 725.523438 194.890625 726.316406 195.21875 C 727.105469 195.546875 727.921875 195.792969 728.761719 195.960938 C 729.605469 196.128906 730.453125 196.210938 731.308594 196.210938 C 732.167969 196.210938 733.015625 196.128906 733.855469 195.960938 C 734.695312 195.792969 735.511719 195.546875 736.304688 195.21875 C 737.097656 194.890625 737.847656 194.488281 738.5625 194.011719 C 739.273438 193.535156 739.933594 192.992188 740.539062 192.386719 C 741.144531 191.78125 741.6875 191.121094 742.164062 190.410156 C 742.636719 189.695312 743.039062 188.941406 743.367188 188.152344 C 743.695312 187.359375 743.945312 186.542969 744.109375 185.699219 C 744.277344 184.859375 744.363281 184.011719 744.363281 183.152344 L 744.363281 117.855469 C 744.363281 116.996094 744.277344 116.148438 744.113281 115.304688 C 743.945312 114.464844 743.695312 113.648438 743.367188 112.855469 C 743.039062 112.0625 742.636719 111.3125 742.164062 110.597656 C 741.6875 109.886719 741.144531 109.226562 740.539062 108.617188 C 739.933594 108.011719 739.273438 107.472656 738.5625 106.996094 C 737.847656 106.519531 737.097656 106.117188 736.304688 105.789062 C 735.511719 105.460938 734.695312 105.210938 733.855469 105.046875 C 733.015625 104.878906 732.167969 104.792969 731.308594 104.792969 L 666.046875 104.792969 C 665.191406 104.792969 664.34375 104.878906 663.5 105.046875 C 662.660156 105.210938 661.84375 105.460938 661.054688 105.789062 C 660.261719 106.117188 659.507812 106.519531 658.796875 106.996094 C 658.082031 107.472656 657.425781 108.011719 656.820312 108.617188 C 656.210938 109.226562 655.671875 109.886719 655.195312 110.597656 C 654.71875 111.3125 654.316406 112.0625 653.988281 112.855469 C 653.660156 113.648438 653.414062 114.464844 653.246094 115.304688 C 653.078125 116.148438 652.996094 116.996094 652.996094 117.855469 C 652.996094 118.710938 653.078125 119.5625 653.246094 120.402344 C 653.414062 121.242188 653.660156 122.058594 653.988281 122.851562 C 654.316406 123.644531 654.71875 124.394531 655.195312 125.109375 C 655.671875 125.824219 656.210938 126.480469 656.820312 127.089844 C 657.425781 127.695312 658.082031 128.234375 658.796875 128.710938 C 659.507812 129.1875 660.261719 129.589844 661.054688 129.917969 C 661.84375 130.246094 662.660156 130.496094 663.5 130.664062 C 664.34375 130.828125 665.191406 130.914062 666.046875 130.914062 L 699.253906 130.914062 L 584.289062 239.585938 C 579.566406 244.085938 574.742188 248.476562 569.808594 252.746094 C 564.878906 257.019531 559.851562 261.171875 554.722656 265.207031 C 549.59375 269.238281 544.371094 273.144531 539.054688 276.929688 C 533.742188 280.710938 528.339844 284.367188 522.851562 287.890625 C 517.363281 291.417969 511.792969 294.8125 506.140625 298.070312 C 500.488281 301.328125 494.765625 304.453125 488.964844 307.4375 C 483.164062 310.425781 477.296875 313.273438 471.363281 315.980469 C 465.425781 318.683594 459.429688 321.25 453.375 323.667969 C 447.316406 326.089844 441.203125 328.363281 435.039062 330.492188 C 428.871094 332.621094 422.660156 334.597656 416.398438 336.429688 C 410.136719 338.261719 403.835938 339.945312 397.496094 341.476562 C 391.15625 343.007812 384.78125 344.386719 378.375 345.613281 C 371.96875 346.839844 365.539062 347.914062 359.082031 348.832031 C 352.621094 349.753906 346.148438 350.519531 339.652344 351.128906 C 333.160156 351.738281 326.652344 352.195312 320.136719 352.496094 C 313.621094 352.796875 307.101562 352.941406 300.582031 352.929688 C 299.722656 352.929688 298.875 353.011719 298.035156 353.179688 C 297.195312 353.347656 296.378906 353.597656 295.585938 353.925781 C 294.792969 354.253906 294.042969 354.65625 293.328125 355.128906 C 292.617188 355.605469 291.957031 356.148438 291.351562 356.753906 C 290.746094 357.359375 290.203125 358.019531 289.726562 358.734375 C 289.253906 359.445312 288.851562 360.199219 288.523438 360.992188 C 288.195312 361.785156 287.945312 362.601562 287.777344 363.441406 C 287.613281 364.28125 287.527344 365.132812 287.527344 365.988281 C 287.527344 366.847656 287.613281 367.695312 287.777344 368.539062 C 287.945312 369.378906 288.195312 370.195312 288.523438 370.988281 C 288.851562 371.78125 289.253906 372.53125 289.726562 373.246094 C 290.203125 373.957031 290.746094 374.617188 291.351562 375.222656 C 291.957031 375.832031 292.617188 376.371094 293.328125 376.847656 C 294.042969 377.324219 294.792969 377.726562 295.585938 378.054688 C 296.378906 378.382812 297.195312 378.632812 298.035156 378.796875 C 298.875 378.964844 299.722656 379.050781 300.582031 379.050781 Z M 300.582031 379.050781 "/>
</g>
<g clip-path="url(#clip2)" clip-rule="nonzero">
<path style=" stroke:none;fill-rule:nonzero;fill:rgb(100%,100%,100%);fill-opacity:1;" d="M 796.570312 679.425781 L 757.414062 679.425781 L 757.414062 287.632812 L 679.101562 287.632812 L 679.101562 679.425781 L 600.785156 679.425781 L 600.785156 418.230469 L 522.472656 418.230469 L 522.472656 679.425781 L 444.15625 679.425781 L 444.15625 548.828125 L 365.84375 548.828125 L 365.84375 679.425781 L 287.527344 679.425781 L 287.527344 601.066406 L 209.214844 601.066406 L 209.214844 679.425781 L 143.953125 679.425781 L 143.953125 483.527344 L 196.160156 483.527344 L 196.160156 588.007812 L 248.371094 588.007812 L 248.371094 457.40625 C 248.371094 456.550781 248.328125 455.699219 248.246094 454.847656 C 248.160156 453.996094 248.035156 453.152344 247.871094 452.3125 C 247.703125 451.472656 247.496094 450.644531 247.246094 449.824219 C 247 449.007812 246.710938 448.203125 246.382812 447.414062 C 246.058594 446.621094 245.691406 445.851562 245.289062 445.09375 C 244.886719 444.339844 244.445312 443.609375 243.972656 442.898438 C 243.496094 442.1875 242.988281 441.5 242.445312 440.839844 C 241.902344 440.175781 241.328125 439.542969 240.726562 438.9375 C 240.121094 438.332031 239.488281 437.761719 238.828125 437.21875 C 238.167969 436.675781 237.480469 436.164062 236.769531 435.691406 C 236.058594 435.214844 235.324219 434.777344 234.570312 434.371094 C 233.816406 433.96875 233.046875 433.605469 232.257812 433.277344 C 231.464844 432.949219 230.664062 432.660156 229.84375 432.414062 C 229.027344 432.164062 228.199219 431.957031 227.359375 431.789062 C 226.519531 431.625 225.675781 431.5 224.824219 431.414062 C 223.972656 431.332031 223.121094 431.289062 222.265625 431.289062 L 170.058594 431.289062 L 170.058594 339.871094 L 222.265625 339.871094 C 223.550781 339.871094 224.828125 339.808594 226.105469 339.679688 C 227.378906 339.554688 228.648438 339.367188 229.90625 339.117188 C 231.164062 338.867188 232.40625 338.554688 233.632812 338.183594 C 234.859375 337.808594 236.066406 337.378906 237.25 336.886719 C 238.4375 336.398438 239.59375 335.847656 240.726562 335.242188 C 241.855469 334.640625 242.953125 333.980469 244.019531 333.265625 C 245.085938 332.554688 246.117188 331.789062 247.109375 330.976562 C 248.097656 330.164062 249.046875 329.300781 249.953125 328.394531 C 250.863281 327.488281 251.722656 326.539062 252.535156 325.546875 C 253.347656 324.554688 254.113281 323.523438 254.824219 322.457031 C 255.535156 321.390625 256.195312 320.292969 256.800781 319.160156 C 257.40625 318.027344 257.953125 316.871094 258.441406 315.683594 C 258.933594 314.5 259.367188 313.292969 259.738281 312.0625 C 260.109375 310.835938 260.421875 309.59375 260.671875 308.335938 C 260.921875 307.074219 261.109375 305.808594 261.234375 304.53125 C 261.359375 303.253906 261.421875 301.972656 261.421875 300.691406 L 261.421875 196.210938 C 261.421875 195.355469 261.382812 194.503906 261.296875 193.652344 C 261.214844 192.800781 261.089844 191.957031 260.921875 191.117188 C 260.753906 190.277344 260.546875 189.449219 260.300781 188.628906 C 260.050781 187.8125 259.765625 187.007812 259.4375 186.21875 C 259.109375 185.425781 258.746094 184.652344 258.339844 183.898438 C 257.9375 183.144531 257.5 182.414062 257.023438 181.703125 C 256.550781 180.988281 256.039062 180.304688 255.5 179.640625 C 254.957031 178.980469 254.382812 178.347656 253.777344 177.742188 C 253.171875 177.136719 252.539062 176.566406 251.878906 176.023438 C 251.21875 175.480469 250.53125 174.96875 249.820312 174.496094 C 249.109375 174.019531 248.378906 173.582031 247.625 173.175781 C 246.871094 172.773438 246.097656 172.410156 245.308594 172.082031 C 244.519531 171.753906 243.714844 171.464844 242.898438 171.21875 C 242.078125 170.96875 241.25 170.761719 240.410156 170.59375 C 239.574219 170.429688 238.726562 170.300781 237.878906 170.21875 C 237.027344 170.136719 236.171875 170.09375 235.320312 170.09375 C 234.464844 170.09375 233.609375 170.136719 232.761719 170.21875 C 231.910156 170.300781 231.066406 170.429688 230.226562 170.59375 C 229.386719 170.761719 228.558594 170.96875 227.742188 171.21875 C 226.921875 171.464844 226.117188 171.753906 225.328125 172.082031 C 224.539062 172.410156 223.765625 172.773438 223.011719 173.175781 C 222.257812 173.582031 221.527344 174.019531 220.816406 174.496094 C 220.105469 174.96875 219.417969 175.480469 218.757812 176.023438 C 218.097656 176.566406 217.464844 177.136719 216.859375 177.742188 C 216.253906 178.347656 215.683594 178.980469 215.140625 179.640625 C 214.597656 180.304688 214.089844 180.988281 213.613281 181.703125 C 213.136719 182.414062 212.699219 183.144531 212.296875 183.898438 C 211.894531 184.652344 211.527344 185.425781 211.199219 186.21875 C 210.875 187.007812 210.585938 187.8125 210.339844 188.628906 C 210.089844 189.449219 209.882812 190.277344 209.714844 191.117188 C 209.550781 191.957031 209.421875 192.800781 209.339844 193.652344 C 209.257812 194.503906 209.214844 195.355469 209.214844 196.210938 L 209.214844 287.632812 L 91.742188 287.632812 C 90.03125 287.632812 88.328125 287.714844 86.625 287.882812 C 84.921875 288.050781 83.234375 288.300781 81.558594 288.632812 C 79.878906 288.96875 78.222656 289.382812 76.585938 289.878906 C 74.949219 290.378906 73.34375 290.953125 71.761719 291.609375 C 70.183594 292.261719 68.640625 292.992188 67.132812 293.800781 C 65.625 294.605469 64.15625 295.484375 62.738281 296.433594 C 61.316406 297.386719 59.941406 298.402344 58.621094 299.488281 C 57.300781 300.574219 56.035156 301.722656 54.824219 302.929688 C 53.617188 304.140625 52.46875 305.40625 51.382812 306.730469 C 50.300781 308.050781 49.28125 309.425781 48.332031 310.847656 C 47.382812 312.269531 46.503906 313.734375 45.699219 315.246094 C 44.890625 316.753906 44.160156 318.296875 43.507812 319.878906 C 42.851562 321.460938 42.277344 323.070312 41.78125 324.707031 C 41.285156 326.34375 40.871094 328 40.535156 329.679688 C 40.203125 331.355469 39.953125 333.046875 39.785156 334.75 C 39.617188 336.453125 39.53125 338.160156 39.53125 339.871094 L 39.53125 457.40625 C 39.53125 458.261719 39.574219 459.117188 39.660156 459.96875 C 39.742188 460.820312 39.867188 461.664062 40.035156 462.503906 C 40.203125 463.34375 40.410156 464.171875 40.65625 464.988281 C 40.90625 465.808594 41.191406 466.613281 41.519531 467.402344 C 41.847656 468.195312 42.210938 468.964844 42.617188 469.722656 C 43.019531 470.476562 43.457031 471.207031 43.933594 471.917969 C 44.40625 472.628906 44.917969 473.316406 45.457031 473.976562 C 46 474.640625 46.574219 475.273438 47.179688 475.878906 C 47.785156 476.480469 48.417969 477.054688 49.078125 477.597656 C 49.738281 478.140625 50.421875 478.652344 51.132812 479.125 C 51.84375 479.601562 52.578125 480.039062 53.332031 480.445312 C 54.085938 480.847656 54.859375 481.210938 55.648438 481.539062 C 56.4375 481.867188 57.242188 482.15625 58.058594 482.402344 C 58.878906 482.652344 59.707031 482.859375 60.546875 483.027344 C 61.382812 483.191406 62.226562 483.316406 63.078125 483.402344 C 63.929688 483.484375 64.78125 483.527344 65.636719 483.527344 C 66.492188 483.527344 67.34375 483.484375 68.195312 483.402344 C 69.046875 483.316406 69.890625 483.191406 70.730469 483.027344 C 71.570312 482.859375 72.398438 482.652344 73.214844 482.402344 C 74.035156 482.15625 74.835938 481.867188 75.628906 481.539062 C 76.417969 481.210938 77.1875 480.847656 77.945312 480.445312 C 78.699219 480.039062 79.429688 479.601562 80.140625 479.125 C 80.851562 478.652344 81.539062 478.140625 82.199219 477.597656 C 82.859375 477.054688 83.492188 476.480469 84.097656 475.878906 C 84.699219 475.273438 85.273438 474.640625 85.816406 473.976562 C 86.359375 473.316406 86.867188 472.628906 87.34375 471.917969 C 87.816406 471.207031 88.257812 470.476562 88.660156 469.722656 C 89.0625 468.964844 89.429688 468.195312 89.753906 467.402344 C 90.082031 466.613281 90.371094 465.808594 90.617188 464.988281 C 90.867188 464.171875 91.074219 463.34375 91.242188 462.503906 C 91.40625 461.664062 91.53125 460.820312 91.617188 459.96875 C 91.699219 459.117188 91.742188 458.261719 91.742188 457.40625 L 91.742188 679.425781 L 13.429688 679.425781 C 12.570312 679.425781 11.722656 679.507812 10.882812 679.675781 C 10.042969 679.84375 9.226562 680.089844 8.433594 680.417969 C 7.640625 680.746094 6.890625 681.148438 6.175781 681.625 C 5.464844 682.101562 4.804688 682.644531 4.199219 683.25 C 3.59375 683.855469 3.050781 684.515625 2.574219 685.226562 C 2.097656 685.941406 1.699219 686.695312 1.371094 687.488281 C 1.042969 688.277344 0.792969 689.09375 0.625 689.9375 C 0.460938 690.777344 0.375 691.625 0.375 692.484375 C 0.375 693.339844 0.460938 694.191406 0.625 695.03125 C 0.792969 695.871094 1.042969 696.691406 1.371094 697.480469 C 1.699219 698.273438 2.097656 699.027344 2.574219 699.738281 C 3.050781 700.453125 3.59375 701.113281 4.199219 701.71875 C 4.804688 702.324219 5.464844 702.867188 6.175781 703.34375 C 6.890625 703.820312 7.640625 704.222656 8.433594 704.550781 C 9.226562 704.878906 10.042969 705.125 10.882812 705.292969 C 11.722656 705.460938 12.570312 705.542969 13.429688 705.542969 L 796.570312 705.542969 C 797.429688 705.542969 798.277344 705.460938 799.117188 705.292969 C 799.957031 705.125 800.773438 704.878906 801.566406 704.550781 C 802.359375 704.222656 803.109375 703.820312 803.824219 703.34375 C 804.535156 702.867188 805.195312 702.324219 805.800781 701.71875 C 806.40625 701.113281 806.949219 700.453125 807.425781 699.738281 C 807.902344 699.027344 808.300781 698.273438 808.628906 697.480469 C 808.957031 696.691406 809.207031 695.871094 809.375 695.03125 C 809.539062 694.191406 809.625 693.339844 809.625 692.484375 C 809.625 691.625 809.539062 690.777344 809.375 689.9375 C 809.207031 689.09375 808.957031 688.277344 808.628906 687.488281 C 808.300781 686.695312 807.902344 685.941406 807.425781 685.230469 C 806.949219 684.515625 806.40625 683.855469 805.800781 683.25 C 805.195312 682.644531 804.535156 682.101562 803.824219 681.625 C 803.109375 681.148438 802.359375 680.746094 801.566406 680.417969 C 800.773438 680.089844 799.957031 679.84375 799.117188 679.675781 C 798.277344 679.507812 797.429688 679.425781 796.570312 679.425781 Z M 796.570312 679.425781 "/>
</g>
</g>
</svg>
