<?xml version="1.0" encoding="UTF-8"?>
<svg xmlns="http://www.w3.org/2000/svg" xmlns:xlink="http://www.w3.org/1999/xlink" width="810pt" height="809.999993pt" viewBox="0 0 810 809.999993" version="1.2">
<defs>
<clipPath id="clip1">
  <path d="M 169.40625 18.78125 L 641.90625 18.78125 L 641.90625 794.28125 L 169.40625 794.28125 Z M 169.40625 18.78125 "/>
</clipPath>
</defs>
<g id="surface1">
<g clip-path="url(#clip1)" clip-rule="nonzero">
<path style=" stroke:none;fill-rule:nonzero;fill:rgb(15.689087%,21.569824%,33.729553%);fill-opacity:1;" d="M 169.652344 751.871094 L 169.652344 757.929688 C 169.652344 777.921875 185.988281 794.28125 205.960938 794.28125 L 605.355469 794.28125 C 625.324219 794.28125 641.664062 777.921875 641.664062 757.929688 L 641.664062 751.871094 C 641.664062 731.878906 625.324219 715.519531 605.355469 715.519531 L 605.355469 605.253906 C 605.355469 567.691406 581.148438 521.039062 551.496094 499.226562 L 435.914062 413.800781 L 435.914062 399.261719 L 551.496094 314.441406 C 581.753906 292.023438 605.355469 245.375 605.355469 208.414062 L 605.355469 97.542969 C 625.324219 97.542969 641.664062 81.183594 641.664062 61.191406 L 641.664062 55.132812 C 641.664062 35.140625 625.324219 18.78125 605.355469 18.78125 L 205.960938 18.78125 C 185.988281 18.78125 169.652344 35.140625 169.652344 55.132812 L 169.652344 61.191406 C 169.652344 81.183594 185.988281 97.542969 205.960938 97.542969 L 205.960938 207.808594 C 205.960938 245.375 229.558594 292.023438 259.816406 313.835938 L 375.398438 398.65625 L 375.398438 413.195312 L 259.816406 498.015625 C 229.558594 520.433594 205.960938 567.085938 205.960938 604.042969 L 205.960938 715.519531 C 185.988281 715.519531 169.652344 731.878906 169.652344 751.871094 Z M 230.164062 605.253906 C 230.164062 575.566406 250.136719 536.1875 274.339844 518.617188 L 394.765625 430.160156 C 397.789062 427.738281 399.605469 424.101562 399.605469 420.464844 L 399.605469 393.808594 C 399.605469 390.171875 397.789062 386.539062 394.765625 384.113281 L 274.339844 295.054688 C 250.738281 277.484375 230.164062 238.101562 230.164062 208.414062 L 230.164062 97.542969 L 581.148438 97.542969 L 581.148438 207.808594 C 581.148438 237.496094 560.574219 276.878906 536.972656 294.449219 L 416.550781 383.507812 C 413.523438 385.933594 411.707031 389.566406 411.707031 393.203125 L 411.707031 419.859375 C 411.707031 423.496094 413.523438 427.132812 416.550781 429.554688 L 536.972656 518.011719 C 560.574219 535.578125 581.148438 575.566406 581.148438 604.648438 L 581.148438 715.519531 L 550.890625 715.519531 L 550.890625 620.398438 C 550.890625 592.53125 533.34375 558.601562 511.558594 541.636719 L 413.523438 468.933594 C 409.289062 465.90625 403.234375 465.90625 399 468.933594 L 300.363281 541.636719 C 277.972656 557.996094 260.421875 592.53125 260.421875 619.792969 L 260.421875 715.519531 L 230.164062 715.519531 Z M 230.164062 605.253906 "/>
</g>
<path style=" stroke:none;fill-rule:nonzero;fill:rgb(15.689087%,21.569824%,33.729553%);fill-opacity:1;" d="M 412.917969 343.523438 L 510.953125 270.820312 C 515.1875 267.789062 517.003906 262.335938 515.1875 257.492188 C 513.371094 252.644531 509.136719 249.007812 503.691406 249.007812 L 306.414062 249.007812 C 300.96875 249.007812 296.730469 252.644531 294.914062 257.492188 C 293.101562 262.335938 294.914062 267.789062 299.152344 270.820312 L 397.789062 343.523438 C 400.210938 345.339844 402.632812 345.945312 405.050781 345.945312 C 408.683594 345.945312 411.101562 345.339844 412.917969 343.523438 Z M 412.917969 343.523438 "/>
</g>
</svg>
